<mxfile host="app.diagrams.net" modified="2024-03-22T19:39:24.773Z" agent="Mozilla/5.0 (Windows NT 10.0; Win64; x64) AppleWebKit/537.36 (KHTML, like Gecko) Chrome/122.0.0.0 Safari/537.36" version="24.0.7" etag="Q2lB6hmeqaohnId-d6w8" type="device">
  <diagram id="PCe-Ii_rdGNmRUYSaeVg" name="Página-1">
    <mxGraphModel dx="1877" dy="530" grid="1" gridSize="10" guides="1" tooltips="1" connect="1" arrows="1" fold="1" page="1" pageScale="1" pageWidth="827" pageHeight="1169" math="0" shadow="0">
      <root>
        <mxCell id="0" />
        <mxCell id="1" parent="0" />
        <mxCell id="5Ku1AsSWXfMA15FfOODn-1" value="&lt;span style=&quot;font-size: 18px;&quot;&gt;Inicio&lt;/span&gt;" style="rounded=1;whiteSpace=wrap;html=1;" vertex="1" parent="1">
          <mxGeometry x="20" y="20" width="120" height="60" as="geometry" />
        </mxCell>
        <mxCell id="5Ku1AsSWXfMA15FfOODn-2" value="Leia o numero final da placa" style="rounded=0;whiteSpace=wrap;html=1;" vertex="1" parent="1">
          <mxGeometry x="20" y="150" width="120" height="60" as="geometry" />
        </mxCell>
        <mxCell id="5Ku1AsSWXfMA15FfOODn-3" value="Verifique se o número final da placa está dentro da faixa esperada" style="rounded=0;whiteSpace=wrap;html=1;" vertex="1" parent="1">
          <mxGeometry x="20" y="300" width="120" height="60" as="geometry" />
        </mxCell>
        <mxCell id="5Ku1AsSWXfMA15FfOODn-4" value="É um número entre 0 a 9" style="rhombus;whiteSpace=wrap;html=1;" vertex="1" parent="1">
          <mxGeometry x="-5" y="435" width="170" height="110" as="geometry" />
        </mxCell>
        <mxCell id="5Ku1AsSWXfMA15FfOODn-5" value="&lt;font style=&quot;font-size: 15px;&quot;&gt;O número digitado esta incorreto. Por favor, digite um número de 0 a 9&lt;/font&gt;" style="ellipse;whiteSpace=wrap;html=1;" vertex="1" parent="1">
          <mxGeometry x="-10" y="585" width="180" height="110" as="geometry" />
        </mxCell>
        <mxCell id="5Ku1AsSWXfMA15FfOODn-6" value="&lt;font style=&quot;font-size: 14px;&quot;&gt;Exiba o período de pagamento correspondente ao número final da placa digitado&amp;nbsp;&lt;/font&gt;" style="ellipse;whiteSpace=wrap;html=1;" vertex="1" parent="1">
          <mxGeometry x="210" y="430" width="170" height="120" as="geometry" />
        </mxCell>
        <mxCell id="5Ku1AsSWXfMA15FfOODn-7" value="&lt;span style=&quot;font-size: 18px;&quot;&gt;Fim&lt;/span&gt;" style="rounded=1;whiteSpace=wrap;html=1;" vertex="1" parent="1">
          <mxGeometry x="440" y="460" width="120" height="60" as="geometry" />
        </mxCell>
        <mxCell id="5Ku1AsSWXfMA15FfOODn-8" value="Sim" style="text;strokeColor=none;align=center;fillColor=none;html=1;verticalAlign=middle;whiteSpace=wrap;rounded=0;" vertex="1" parent="1">
          <mxGeometry x="140" y="430" width="60" height="30" as="geometry" />
        </mxCell>
        <mxCell id="5Ku1AsSWXfMA15FfOODn-9" value="Não" style="text;strokeColor=none;align=center;fillColor=none;html=1;verticalAlign=middle;whiteSpace=wrap;rounded=0;" vertex="1" parent="1">
          <mxGeometry x="140" y="540" width="60" height="30" as="geometry" />
        </mxCell>
        <mxCell id="5Ku1AsSWXfMA15FfOODn-13" value="" style="endArrow=classic;html=1;rounded=0;entryX=0.5;entryY=0;entryDx=0;entryDy=0;exitX=0.5;exitY=1;exitDx=0;exitDy=0;" edge="1" parent="1" source="5Ku1AsSWXfMA15FfOODn-3" target="5Ku1AsSWXfMA15FfOODn-4">
          <mxGeometry width="50" height="50" relative="1" as="geometry">
            <mxPoint x="390" y="480" as="sourcePoint" />
            <mxPoint x="440" y="430" as="targetPoint" />
          </mxGeometry>
        </mxCell>
        <mxCell id="5Ku1AsSWXfMA15FfOODn-14" value="" style="endArrow=classic;html=1;rounded=0;entryX=0.5;entryY=0;entryDx=0;entryDy=0;" edge="1" parent="1" source="5Ku1AsSWXfMA15FfOODn-2" target="5Ku1AsSWXfMA15FfOODn-3">
          <mxGeometry width="50" height="50" relative="1" as="geometry">
            <mxPoint x="390" y="480" as="sourcePoint" />
            <mxPoint x="440" y="430" as="targetPoint" />
          </mxGeometry>
        </mxCell>
        <mxCell id="5Ku1AsSWXfMA15FfOODn-15" value="" style="endArrow=classic;html=1;rounded=0;exitX=0.5;exitY=1;exitDx=0;exitDy=0;entryX=0.5;entryY=0;entryDx=0;entryDy=0;" edge="1" parent="1" source="5Ku1AsSWXfMA15FfOODn-1" target="5Ku1AsSWXfMA15FfOODn-2">
          <mxGeometry width="50" height="50" relative="1" as="geometry">
            <mxPoint x="73" y="80" as="sourcePoint" />
            <mxPoint x="440" y="430" as="targetPoint" />
          </mxGeometry>
        </mxCell>
        <mxCell id="5Ku1AsSWXfMA15FfOODn-16" value="" style="endArrow=classic;html=1;rounded=0;exitX=1;exitY=0.5;exitDx=0;exitDy=0;entryX=0;entryY=0.5;entryDx=0;entryDy=0;" edge="1" parent="1" source="5Ku1AsSWXfMA15FfOODn-4" target="5Ku1AsSWXfMA15FfOODn-6">
          <mxGeometry width="50" height="50" relative="1" as="geometry">
            <mxPoint x="390" y="480" as="sourcePoint" />
            <mxPoint x="440" y="430" as="targetPoint" />
          </mxGeometry>
        </mxCell>
        <mxCell id="5Ku1AsSWXfMA15FfOODn-17" value="" style="endArrow=classic;html=1;rounded=0;exitX=0.5;exitY=1;exitDx=0;exitDy=0;entryX=0.5;entryY=0;entryDx=0;entryDy=0;" edge="1" parent="1" source="5Ku1AsSWXfMA15FfOODn-4" target="5Ku1AsSWXfMA15FfOODn-5">
          <mxGeometry width="50" height="50" relative="1" as="geometry">
            <mxPoint x="390" y="480" as="sourcePoint" />
            <mxPoint x="440" y="430" as="targetPoint" />
          </mxGeometry>
        </mxCell>
        <mxCell id="5Ku1AsSWXfMA15FfOODn-18" value="" style="endArrow=classic;html=1;rounded=0;exitX=1;exitY=0.5;exitDx=0;exitDy=0;entryX=0;entryY=0.5;entryDx=0;entryDy=0;" edge="1" parent="1" source="5Ku1AsSWXfMA15FfOODn-6" target="5Ku1AsSWXfMA15FfOODn-7">
          <mxGeometry width="50" height="50" relative="1" as="geometry">
            <mxPoint x="390" y="480" as="sourcePoint" />
            <mxPoint x="440" y="430" as="targetPoint" />
          </mxGeometry>
        </mxCell>
      </root>
    </mxGraphModel>
  </diagram>
</mxfile>
